<?xml version="1.0" ?><!DOCTYPE svg  PUBLIC '-//W3C//DTD SVG 1.1//EN'  'http://www.w3.org/Graphics/SVG/1.1/DTD/svg11.dtd'><svg enable-background="new 0 0 128 128" id="Слой_1" version="1.1" viewBox="0 0 128 128" xml:space="preserve" xmlns="http://www.w3.org/2000/svg" xmlns:xlink="http://www.w3.org/1999/xlink"><path d="M119,44H9c-2.8,0-5,2.2-5,5v10c0,2.8,2.2,5,5,5h5l8.6,51.6c0.8,4.8,5,8.4,9.9,8.4h63.1  c4.9,0,9.1-3.5,9.9-8.4L114,64h5c2.8,0,5-2.2,5-5V49C124,46.2,121.8,44,119,44z" fill="#FFFFFF"/><g><g><path d="M32.6,115.6L24,64h-5c-2.8,0-5-2.2-5-5V49c0-2.8,2.2-5,5-5H9c-2.8,0-5,2.2-5,5v10c0,2.8,2.2,5,5,5h5    l8.6,51.6c0.8,4.8,5,8.4,9.9,8.4h10C37.6,124,33.4,120.5,32.6,115.6z" fill="#D8D7D8"/></g><path d="M119,44H9c-2.8,0-5,2.2-5,5v10c0,2.8,2.2,5,5,5h5l1.7,10h96.7l1.7-10h5c2.8,0,5-2.2,5-5V49   C124,46.2,121.8,44,119,44z" fill="#D8D7D8"/><path d="M119,64H9c-2.8,0-5-2.2-5-5V49c0-2.8,2.2-5,5-5h110c2.8,0,5,2.2,5,5v10C124,61.8,121.8,64,119,64z" fill="#F4F3F2"/><g><path d="M14,59V49c0-2.8,2.2-5,5-5H9c-2.8,0-5,2.2-5,5v10c0,2.8,2.2,5,5,5h10C16.2,64,14,61.8,14,59z" fill="#CCCCCC"/></g><path d="M119,42.5H94.8L65.2,3.1c-0.6-0.8-1.8-0.8-2.4,0L33.2,42.5H9c-3.6,0-6.5,2.9-6.5,6.5v10   c0,3.6,2.9,6.5,6.5,6.5h3.7l8.4,50.4c0.9,5.6,5.7,9.6,11.3,9.6h63.1c5.6,0,10.4-4,11.3-9.6l8.4-50.4h3.7c3.6,0,6.5-2.9,6.5-6.5V49   C125.5,45.4,122.6,42.5,119,42.5z M64,6.5l27,36H37L64,6.5z M103.9,115.4c-0.7,4.1-4.2,7.1-8.4,7.1H32.5c-4.2,0-7.7-3-8.4-7.1   l-8.3-49.9h96.5L103.9,115.4z M122.5,59c0,1.9-1.6,3.5-3.5,3.5h-5H14H9c-1.9,0-3.5-1.6-3.5-3.5V49c0-1.9,1.6-3.5,3.5-3.5h22   l-3.5,4.6c-0.3-0.1-0.7-0.1-1-0.1c-2.2,0-4,1.8-4,4s1.8,4,4,4s4-1.8,4-4c0-0.8-0.2-1.5-0.6-2.1l4.8-6.4h58.5l4.8,6.4   c-0.4,0.6-0.6,1.3-0.6,2.1c0,2.2,1.8,4,4,4s4-1.8,4-4s-1.8-4-4-4c-0.4,0-0.7,0.1-1,0.1L97,45.5h22c1.9,0,3.5,1.6,3.5,3.5V59z" fill="#4A374F"/><g><path d="M64.1,115.5c-0.8,0-1.5-0.7-1.5-1.5V74c0-0.8,0.7-1.5,1.5-1.5s1.5,0.7,1.5,1.5v40    C65.6,114.8,64.9,115.5,64.1,115.5z" fill="#4A374F"/></g><g><path d="M84.1,115.5c-0.8,0-1.5-0.7-1.5-1.5V74c0-0.8,0.7-1.5,1.5-1.5s1.5,0.7,1.5,1.5v40    C85.6,114.8,84.9,115.5,84.1,115.5z" fill="#4A374F"/></g><g><path d="M44.1,115.5c-0.8,0-1.5-0.7-1.5-1.5V74c0-0.8,0.7-1.5,1.5-1.5s1.5,0.7,1.5,1.5v40    C45.6,114.8,44.9,115.5,44.1,115.5z" fill="#4A374F"/></g></g></svg>