<?xml version="1.0" encoding="utf-8"?>
<!-- Generator: Adobe Illustrator 17.0.0, SVG Export Plug-In . SVG Version: 6.00 Build 0)  -->
<!DOCTYPE svg PUBLIC "-//W3C//DTD SVG 1.1//EN" "http://www.w3.org/Graphics/SVG/1.1/DTD/svg11.dtd">
<svg version="1.1" id="Layer_1" xmlns="http://www.w3.org/2000/svg" xmlns:xlink="http://www.w3.org/1999/xlink" x="0px" y="0px"
	 width="24px" height="24px" viewBox="0 0 24 24" enable-background="new 0 0 24 24" xml:space="preserve">
<path fill="#FFFFFF" d="M11.931,2C6.417,2.039,1.962,6.556,2,12.069c0.038,5.514,4.555,9.969,10.069,9.93
	c5.514-0.038,9.969-4.555,9.93-10.069C21.961,6.417,17.444,1.962,11.931,2 M12.051,19.272c-4.01,0.028-7.295-3.212-7.323-7.221
	c-0.028-4.01,3.212-7.295,7.222-7.323s7.294,3.212,7.322,7.222S16.06,19.244,12.051,19.272 M14.712,13.641l1.484,1.36l-0.738,0.654
	c-0.924,0.82-2.11,1.278-3.338,1.286c-2.758,0.019-5.017-2.162-5.036-4.864c-0.019-2.695,2.21-4.903,4.968-4.923
	c1.229-0.009,2.417,0.428,3.345,1.228l0.72,0.621l-1.403,1.424l-0.631-0.55c-0.543-0.473-1.259-0.73-2.017-0.725
	c-1.657,0.012-2.996,1.318-2.985,2.911c0.011,1.601,1.368,2.892,3.025,2.88c0.749-0.005,1.461-0.277,2.007-0.764L14.712,13.641z"/>
</svg>
