<?xml version="1.0" encoding="utf-8"?>
<!-- Generator: Adobe Illustrator 15.0.0, SVG Export Plug-In . SVG Version: 6.00 Build 0)  -->
<!DOCTYPE svg PUBLIC "-//W3C//DTD SVG 1.1//EN" "http://www.w3.org/Graphics/SVG/1.1/DTD/svg11.dtd">
<svg version="1.1" id="Layer_1" xmlns="http://www.w3.org/2000/svg" xmlns:xlink="http://www.w3.org/1999/xlink" x="0px" y="0px"
	 width="24px" height="24px" viewBox="0 0 24 24" enable-background="new 0 0 24 24" xml:space="preserve">
<g>
	<defs>
		<rect id="SVGID_1_" x="2" y="2" width="20" height="20"/>
	</defs>
	<use xlink:href="#SVGID_1_"  overflow="visible" fill="#FFFFFF"/>
	<clipPath id="SVGID_2_">
		<use xlink:href="#SVGID_1_"  overflow="visible"/>
	</clipPath>
	<path clip-path="url(#SVGID_2_)" fill="#FFFFFF" d="M12,2C6.486,2,2,6.486,2,12c0,5.514,4.486,10,10,10c5.514,0,10-4.486,10-10
		C22,6.486,17.514,2,12,2 M12,19.272c-4.01,0-7.273-3.263-7.273-7.272c0-4.01,3.263-7.273,7.273-7.273
		c4.01,0,7.272,3.263,7.272,7.273C19.272,16.01,16.01,19.272,12,19.272 M14.701,13.66l1.475,1.37l-0.743,0.649
		c-0.93,0.814-2.119,1.263-3.347,1.263c-2.758,0-5.002-2.197-5.002-4.899c0-2.695,2.244-4.888,5.002-4.888
		c1.229,0,2.414,0.445,3.336,1.251l0.716,0.626l-1.413,1.414l-0.627-0.554c-0.54-0.477-1.254-0.739-2.012-0.739
		c-1.657,0-3.005,1.297-3.005,2.89c0,1.601,1.348,2.901,3.005,2.901c0.749,0,1.463-0.267,2.012-0.75L14.701,13.66z"/>
</g>
</svg>
