<?xml version="1.0" ?><!DOCTYPE svg  PUBLIC '-//W3C//DTD SVG 1.1//EN'  'http://www.w3.org/Graphics/SVG/1.1/DTD/svg11.dtd'><svg enable-background="new 0 0 128 128" id="Слой_1" version="1.1" viewBox="0 0 128 128" xml:space="preserve" xmlns="http://www.w3.org/2000/svg" xmlns:xlink="http://www.w3.org/1999/xlink"><g><path d="M109,5.5H91.5V4c0-1.4-1.1-2.5-2.5-2.5H39c-1.4,0-2.5,1.1-2.5,2.5v1.5H19c-1.4,0-2.5,1.1-2.5,2.5v116   c0,1.4,1.1,2.5,2.5,2.5h90c1.4,0,2.5-1.1,2.5-2.5V8C111.5,6.6,110.4,5.5,109,5.5z M41.5,6.5h45v5h-45V6.5z M106.5,121.5h-85v-111   h15V14c0,1.4,1.1,2.5,2.5,2.5h50c1.4,0,2.5-1.1,2.5-2.5v-3.5h15V121.5z" fill="#4A374F"/><path d="M89,91.5H59c-1.4,0-2.5,1.1-2.5,2.5s1.1,2.5,2.5,2.5h30c1.4,0,2.5-1.1,2.5-2.5S90.4,91.5,89,91.5z" fill="#4A374F"/><path d="M89,71.5H59c-1.4,0-2.5,1.1-2.5,2.5s1.1,2.5,2.5,2.5h30c1.4,0,2.5-1.1,2.5-2.5S90.4,71.5,89,71.5z" fill="#4A374F"/><path d="M89,51.5H59c-1.4,0-2.5,1.1-2.5,2.5s1.1,2.5,2.5,2.5h30c1.4,0,2.5-1.1,2.5-2.5S90.4,51.5,89,51.5z" fill="#4A374F"/><path d="M37,56.5h10c1.4,0,2.5-1.1,2.5-2.5s-1.1-2.5-2.5-2.5H37c-1.4,0-2.5,1.1-2.5,2.5S35.6,56.5,37,56.5z" fill="#4A374F"/><path d="M89,31.5H59c-1.4,0-2.5,1.1-2.5,2.5s1.1,2.5,2.5,2.5h30c1.4,0,2.5-1.1,2.5-2.5S90.4,31.5,89,31.5z" fill="#4A374F"/><path d="M37,36.5h10c1.4,0,2.5-1.1,2.5-2.5s-1.1-2.5-2.5-2.5H37c-1.4,0-2.5,1.1-2.5,2.5S35.6,36.5,37,36.5z" fill="#4A374F"/><path d="M37,76.5h10c1.4,0,2.5-1.1,2.5-2.5s-1.1-2.5-2.5-2.5H37c-1.4,0-2.5,1.1-2.5,2.5S35.6,76.5,37,76.5z" fill="#4A374F"/><path d="M50.2,84.2L42,92.5l-4.2-4.2c-1-1-2.6-1-3.5,0s-1,2.6,0,3.5l6,6c0.5,0.5,1.1,0.7,1.8,0.7s1.3-0.2,1.8-0.7   l10-10c1-1,1-2.6,0-3.5S51.2,83.3,50.2,84.2z" fill="#4A374F"/></g></svg>