<?xml version="1.0" encoding="utf-8"?>
<!-- Generator: Adobe Illustrator 15.0.0, SVG Export Plug-In . SVG Version: 6.00 Build 0)  -->
<!DOCTYPE svg PUBLIC "-//W3C//DTD SVG 1.1//EN" "http://www.w3.org/Graphics/SVG/1.1/DTD/svg11.dtd">
<svg version="1.1" id="Layer_1" xmlns="http://www.w3.org/2000/svg" xmlns:xlink="http://www.w3.org/1999/xlink" x="0px" y="0px"
	 width="24px" height="24px" viewBox="1524 500 24 24" enable-background="new 1524 500 24 24" xml:space="preserve">
<path d="M1536.512,505.84c-0.167-0.018-0.335-0.029-0.506-0.029c-0.002,0-0.004,0-0.004,0s0,0-0.001,0
	c-0.173,0-0.343,0.011-0.512,0.029c-6.428,0.307-9.488,6.161-9.488,6.161s3.216,6.187,10.002,6.187c6.783,0,9.998-6.187,9.998-6.187
	S1542.94,506.146,1536.512,505.84z M1534.367,508.875c0.735,0,1.332,0.596,1.332,1.33c0,0.735-0.596,1.333-1.332,1.333
	c-0.734,0-1.33-0.598-1.33-1.333C1533.037,509.47,1533.632,508.875,1534.367,508.875z M1536.002,516.43
	c-4.311,0-6.932-2.936-7.986-4.429c0.634-0.899,1.841-2.321,3.643-3.311c-0.238,0.563-0.37,1.183-0.37,1.832
	c0,2.603,2.109,4.712,4.711,4.712c2.603,0,4.712-2.109,4.712-4.712c0-0.645-0.132-1.261-0.367-1.822
	c1.795,0.991,3.004,2.408,3.64,3.302C1542.932,513.494,1540.31,516.43,1536.002,516.43z"/>
</svg>
