<?xml version="1.0" encoding="utf-8"?>
<!-- Generator: Adobe Illustrator 15.0.0, SVG Export Plug-In . SVG Version: 6.00 Build 0)  -->
<!DOCTYPE svg PUBLIC "-//W3C//DTD SVG 1.1//EN" "http://www.w3.org/Graphics/SVG/1.1/DTD/svg11.dtd">
<svg version="1.1" id="Layer_1" xmlns="http://www.w3.org/2000/svg" xmlns:xlink="http://www.w3.org/1999/xlink" x="0px" y="0px"
	 width="24px" height="24px" viewBox="1524 500 24 24" enable-background="new 1524 500 24 24" xml:space="preserve">
<path fill="none" d="M1534.065,508.874c-0.735,0-1.33,0.596-1.33,1.33c0,0.728,0.584,1.316,1.308,1.329l1.349-1.349
	C1535.381,509.459,1534.793,508.874,1534.065,508.874z"/>
<path fill="none" d="M1530.988,510.521c0-0.648,0.131-1.269,0.37-1.831c-1.802,0.989-3.009,2.411-3.643,3.311
	c0.552,0.781,1.536,1.954,2.963,2.898l1.398-1.398C1531.407,512.687,1530.988,511.658,1530.988,510.521z"/>
<path fill="none" d="M1540.412,510.521c0,2.604-2.109,4.713-4.713,4.713c-0.345,0-0.679-0.042-1.002-0.112l-1.065,1.065
	c0.642,0.15,1.329,0.242,2.069,0.242c4.308,0,6.93-2.936,7.983-4.428c-0.552-0.777-1.564-1.934-2.99-2.877l-0.396,0.396
	C1540.369,509.844,1540.412,510.178,1540.412,510.521z"/>
<path d="M1540.412,510.521c0-0.344-0.043-0.678-0.113-1.001l-5.602,5.602c0.324,0.07,0.658,0.112,1.002,0.112
	C1538.303,515.234,1540.412,513.125,1540.412,510.521z"/>
<path d="M1527.715,512.001c0.634-0.899,1.841-2.321,3.643-3.311c-0.238,0.563-0.37,1.183-0.37,1.831
	c0,1.137,0.418,2.165,1.088,2.979l1.968-1.968c-0.724-0.012-1.308-0.601-1.308-1.329c0-0.734,0.595-1.33,1.33-1.33
	c0.728,0,1.316,0.585,1.327,1.31l3.765-3.765c-0.891-0.311-1.867-0.527-2.946-0.579c-0.168-0.019-0.336-0.029-0.506-0.029
	c-0.003,0-0.004,0-0.004,0s0,0-0.002,0c-0.173,0-0.343,0.011-0.512,0.029c-6.428,0.307-9.488,6.161-9.488,6.161
	s1.222,2.338,3.737,4.14l1.242-1.241C1529.251,513.955,1528.267,512.782,1527.715,512.001z"/>
<path d="M1541.952,507.867l-1.258,1.258c1.426,0.944,2.438,2.1,2.99,2.877c-1.054,1.492-3.676,4.428-7.983,4.428
	c-0.741,0-1.428-0.092-2.069-0.242l-1.413,1.413c1.034,0.362,2.193,0.587,3.482,0.587c6.783,0,9.998-6.187,9.998-6.187
	S1544.474,509.665,1541.952,507.867z"/>
<line fill="none" stroke="#000000" stroke-width="2" stroke-miterlimit="10" x1="1544.698" y1="502.999" x2="1526.699" y2="520.999"/>
</svg>
