<?xml version="1.0" encoding="utf-8"?>
<!-- Generator: Adobe Illustrator 15.0.0, SVG Export Plug-In . SVG Version: 6.00 Build 0)  -->
<!DOCTYPE svg PUBLIC "-//W3C//DTD SVG 1.1//EN" "http://www.w3.org/Graphics/SVG/1.1/DTD/svg11.dtd">
<svg version="1.1" id="Capa_1" xmlns="http://www.w3.org/2000/svg" xmlns:xlink="http://www.w3.org/1999/xlink" x="0px" y="0px"
	 width="44px" height="44px" viewBox="378 278 44 44" enable-background="new 378 278 44 44" xml:space="preserve">
<g>
	<g>
		<path fill="#FFFFFF" d="M398.625,283.077l-4.766-0.006c-1.259,0-2.279,1.018-2.28,2.282l-0.017,29.288
			c0,1.258,1.019,2.284,2.28,2.284l4.763,0.003c1.262,0,2.284-1.022,2.284-2.279l0.015-29.291
			C400.909,284.1,399.886,283.077,398.625,283.077z M398.17,313.549l-3.867,0.004c-0.44,0-0.801-0.359-0.801-0.8
			c0-0.44,0.359-0.801,0.802-0.801l3.868,0.005c0.439,0,0.799,0.359,0.799,0.8S398.613,313.549,398.17,313.549z M398.174,290.626
			l-3.867-0.002c-0.44,0-0.801-0.36-0.801-0.801c0-0.441,0.361-0.8,0.801-0.8l3.867-0.004c0.44,0,0.799,0.367,0.799,0.807
			C398.972,290.265,398.614,290.626,398.174,290.626z"/>
		<path fill="#FFFFFF" d="M387.059,283.076l-4.761-0.006c-1.261,0-2.284,1.018-2.287,2.282L380,314.643
			c-0.003,1.258,1.018,2.284,2.276,2.284l4.762,0.003c1.263,0,2.286-1.022,2.288-2.279l0.012-29.291
			C389.341,284.099,388.321,283.076,387.059,283.076z M386.609,313.549l-3.869,0.004c-0.439,0-0.8-0.359-0.8-0.8
			c0.002-0.44,0.36-0.801,0.801-0.801l3.868,0.005c0.44,0,0.797,0.359,0.797,0.8C387.407,313.197,387.048,313.549,386.609,313.549z
			 M386.609,290.626l-3.865-0.002c-0.44,0-0.799-0.36-0.799-0.801c0-0.441,0.359-0.8,0.799-0.8l3.865-0.004
			c0.441,0,0.798,0.367,0.798,0.807C387.407,290.265,387.048,290.626,386.609,290.626z"/>
		<path fill="#FFFFFF" d="M405.106,286.289c-0.158-0.726-0.874-1.187-1.602-1.028c-0.727,0.158-1.187,0.875-1.028,1.602
			l6.265,28.724c0.158,0.726,0.875,1.186,1.602,1.029c0.726-0.159,1.187-0.876,1.028-1.603L405.106,286.289z"/>
		<path fill="#FFFFFF" d="M419.969,313.139l-6.266-28.725c-0.157-0.726-0.875-1.186-1.601-1.028
			c-0.727,0.159-1.188,0.875-1.028,1.602l6.265,28.725c0.157,0.727,0.875,1.186,1.601,1.027S420.127,313.864,419.969,313.139z"/>
		<path fill="#FFFFFF" d="M407.379,285.052c-0.072-0.335-0.403-0.548-0.738-0.475s-0.548,0.404-0.475,0.739l6.573,30.141
			c0.074,0.335,0.404,0.547,0.738,0.475c0.336-0.074,0.548-0.405,0.475-0.739L407.379,285.052z"/>
		<path fill="#FFFFFF" d="M409.536,284.581c-0.073-0.335-0.403-0.548-0.739-0.475c-0.334,0.073-0.547,0.404-0.475,0.739
			l6.574,30.141c0.073,0.334,0.403,0.547,0.738,0.473c0.335-0.073,0.548-0.403,0.475-0.738L409.536,284.581z"/>
	</g>
</g>
</svg>
