<?xml version="1.0" encoding="utf-8"?>
<!-- Generator: Adobe Illustrator 15.0.0, SVG Export Plug-In . SVG Version: 6.00 Build 0)  -->
<!DOCTYPE svg PUBLIC "-//W3C//DTD SVG 1.1//EN" "http://www.w3.org/Graphics/SVG/1.1/DTD/svg11.dtd">
<svg version="1.1" id="Layer_1" xmlns="http://www.w3.org/2000/svg" xmlns:xlink="http://www.w3.org/1999/xlink" x="0px" y="0px"
	 width="24px" height="24px" viewBox="0 0 24 24" enable-background="new 0 0 24 24" xml:space="preserve">
<g>
	<defs>
		<rect id="SVGID_1_" x="2" y="2" width="20" height="20"/>
	</defs>
	<use xlink:href="#SVGID_1_"  overflow="visible" fill="#FFFFFF"/>
	<clipPath id="SVGID_2_">
		<use xlink:href="#SVGID_1_"  overflow="visible"/>
	</clipPath>
	<path clip-path="url(#SVGID_2_)" fill="#FFFFFF" d="M12,2C6.478,2,2,6.478,2,12s4.478,10,10,10s10-4.478,10-10
		C22,6.476,17.522,2,12,2 M9.5,16.844H7v-8.75h2.5V16.844z M8.328,7.558c-0.647,0-1.171-0.525-1.171-1.173s0.525-1.172,1.171-1.172
		C8.975,5.214,9.5,5.739,9.5,6.385C9.5,7.032,8.975,7.558,8.328,7.558 M18.25,16.844h-2.5v-5.41c0-0.634-0.182-1.077-0.96-1.077
		c-1.291,0-1.54,1.077-1.54,1.077v5.41h-2.5v-8.75h2.5V8.93c0.357-0.274,1.25-0.835,2.5-0.835c0.81,0,2.5,0.485,2.5,3.415V16.844z"
		/>
</g>
</svg>
