<?xml version="1.0" encoding="utf-8"?>
<!-- Generator: Adobe Illustrator 15.0.0, SVG Export Plug-In . SVG Version: 6.00 Build 0)  -->
<!DOCTYPE svg PUBLIC "-//W3C//DTD SVG 1.1//EN" "http://www.w3.org/Graphics/SVG/1.1/DTD/svg11.dtd">
<svg version="1.1" id="Capa_1" xmlns="http://www.w3.org/2000/svg" xmlns:xlink="http://www.w3.org/1999/xlink" x="0px" y="0px"
	 width="30.238px" height="30.239px" viewBox="0 0 30.238 30.239" enable-background="new 0 0 30.238 30.239" xml:space="preserve">
<g>
	<path fill="#FFFFFF" d="M19.147,5.865c-3.66-3.661-9.62-3.661-13.281,0c-3.661,3.663-3.661,9.621,0,13.283
		c3.26,3.26,8.338,3.609,11.998,1.064c0.076,0.364,0.253,0.711,0.536,0.995l5.332,5.331c0.777,0.776,2.032,0.776,2.806,0
		c0.776-0.775,0.776-2.03,0-2.805L21.205,18.4c-0.282-0.281-0.63-0.459-0.994-0.535C22.758,14.205,22.408,9.127,19.147,5.865z
		 M17.464,17.465c-2.733,2.733-7.183,2.733-9.915,0c-2.732-2.734-2.732-7.183,0-9.916c2.732-2.732,7.182-2.732,9.915,0
		C20.198,10.283,20.198,14.731,17.464,17.465z"/>
</g>
</svg>
