<?xml version="1.0" encoding="utf-8"?>
<!-- Generator: Adobe Illustrator 15.0.0, SVG Export Plug-In . SVG Version: 6.00 Build 0)  -->
<!DOCTYPE svg PUBLIC "-//W3C//DTD SVG 1.1//EN" "http://www.w3.org/Graphics/SVG/1.1/DTD/svg11.dtd">
<svg version="1.1" id="Capa_1" xmlns="http://www.w3.org/2000/svg" xmlns:xlink="http://www.w3.org/1999/xlink" x="0px" y="0px"
	 width="24px" height="24px" viewBox="12.826 12.826 24 24" enable-background="new 12.826 12.826 24 24" xml:space="preserve">
<g>
	<g>
		<path fill="#FFFFFF" d="M24.826,14.826c-5.514,0-10,4.486-10,10s4.486,10,10,10s10-4.486,10-10S30.341,14.826,24.826,14.826z
			 M29.287,22.537c0.004,0.099,0.007,0.199,0.007,0.298c0,3.042-2.314,6.549-6.549,6.549c-1.3,0-2.51-0.381-3.528-1.034
			c0.18,0.021,0.363,0.032,0.549,0.032c1.079,0,2.071-0.368,2.858-0.985c-1.007-0.019-1.857-0.684-2.15-1.599
			c0.14,0.027,0.285,0.041,0.433,0.041c0.209,0,0.414-0.026,0.606-0.079c-1.053-0.211-1.846-1.142-1.846-2.257
			c0-0.01,0-0.02,0-0.029c0.31,0.172,0.665,0.276,1.042,0.288c-0.617-0.412-1.023-1.117-1.023-1.916
			c0-0.422,0.113-0.817,0.311-1.157c1.135,1.393,2.832,2.309,4.744,2.405c-0.04-0.169-0.059-0.344-0.059-0.525
			c0-1.271,1.03-2.302,2.301-2.302c0.663,0,1.26,0.28,1.681,0.727c0.524-0.104,1.016-0.294,1.462-0.559
			c-0.173,0.538-0.537,0.988-1.014,1.274c0.466-0.056,0.911-0.179,1.321-0.362C30.128,21.808,29.737,22.214,29.287,22.537z"/>
	</g>
</g>
</svg>
